<svg width="1200" height="675" viewBox="0 0 1200 675" fill="none" xmlns="http://www.w3.org/2000/svg">
  <defs>
    <linearGradient id="bg" x1="0" y1="0" x2="1200" y2="675" gradientUnits="userSpaceOnUse">
      <stop stop-color="#07111F"/>
      <stop offset="0.52" stop-color="#0B2B3A"/>
      <stop offset="1" stop-color="#07111F"/>
    </linearGradient>
    <radialGradient id="glow1" cx="0" cy="0" r="1" gradientUnits="userSpaceOnUse" gradientTransform="translate(350 300) rotate(35) scale(360 220)">
      <stop stop-color="#00D9A3" stop-opacity="0.28"/>
      <stop offset="1" stop-color="#00D9A3" stop-opacity="0"/>
    </radialGradient>
    <radialGradient id="glow2" cx="0" cy="0" r="1" gradientUnits="userSpaceOnUse" gradientTransform="translate(860 300) rotate(-20) scale(300 220)">
      <stop stop-color="#1E8CFF" stop-opacity="0.36"/>
      <stop offset="1" stop-color="#1E8CFF" stop-opacity="0"/>
    </radialGradient>
    <filter id="blur" x="-50" y="-50" width="1300" height="775" filterUnits="userSpaceOnUse">
      <feGaussianBlur stdDeviation="22"/>
    </filter>
  </defs>

  <rect width="1200" height="675" rx="38" fill="url(#bg)"/>
  <rect width="1200" height="675" rx="38" fill="url(#glow1)"/>
  <rect width="1200" height="675" rx="38" fill="url(#glow2)"/>

  <g opacity="0.14" stroke="#F7F8FA" stroke-width="1">
    <path d="M90 150C250 70 360 180 520 100C700 10 820 120 1110 55"/>
    <path d="M70 530C260 430 405 560 575 440C760 310 905 420 1130 330"/>
    <path d="M130 265C265 230 405 260 520 220C650 175 765 125 1020 175"/>
  </g>

  <g transform="translate(115 130)">
    <circle cx="210" cy="210" r="150" fill="#00D9A3" opacity="0.06"/>
    <circle cx="210" cy="210" r="115" stroke="#00D9A3" stroke-opacity="0.55" stroke-width="3"/>
    <circle cx="210" cy="210" r="62" stroke="#C9A84A" stroke-opacity="0.7" stroke-width="3"/>
    <path d="M210 95V325M95 210H325" stroke="#00D9A3" stroke-opacity="0.48" stroke-width="2"/>
    <path d="M129 129L291 291M291 129L129 291" stroke="#1E8CFF" stroke-opacity="0.42" stroke-width="2"/>
    <g fill="#F7F8FA" opacity="0.85">
      <circle cx="210" cy="95" r="7"/>
      <circle cx="325" cy="210" r="7"/>
      <circle cx="210" cy="325" r="7"/>
      <circle cx="95" cy="210" r="7"/>
      <circle cx="291" cy="129" r="5"/>
      <circle cx="291" cy="291" r="5"/>
      <circle cx="129" cy="291" r="5"/>
      <circle cx="129" cy="129" r="5"/>
    </g>
  </g>

  <g transform="translate(645 155)">
    <rect x="0" y="0" width="410" height="250" rx="28" fill="white" fill-opacity="0.06" stroke="white" stroke-opacity="0.12"/>
    <path d="M80 166C126 85 222 84 276 138C303 165 310 204 288 224C251 258 171 234 132 214C99 197 67 188 80 166Z" fill="#00D9A3" fill-opacity="0.14" stroke="#00D9A3" stroke-opacity="0.75" stroke-width="3"/>
    <path d="M156 175C196 150 229 160 253 190" stroke="#1E8CFF" stroke-opacity="0.8" stroke-width="5" stroke-linecap="round"/>
    <circle cx="125" cy="118" r="18" fill="#1E8CFF" fill-opacity="0.76"/>
    <circle cx="303" cy="95" r="11" fill="#C9A84A" fill-opacity="0.85"/>
    <circle cx="330" cy="183" r="9" fill="#00D9A3" fill-opacity="0.85"/>
    <path d="M72 76H338" stroke="white" stroke-opacity="0.16" stroke-width="2" stroke-linecap="round"/>
    <path d="M72 218H338" stroke="white" stroke-opacity="0.16" stroke-width="2" stroke-linecap="round"/>
  </g>

  <text x="110" y="552" fill="#F7F8FA" font-family="Arial, Helvetica, sans-serif" font-size="54" font-weight="800">Anti-Aging &amp; Cellular Health</text>
  <text x="110" y="604" fill="#00D9A3" font-family="Arial, Helvetica, sans-serif" font-size="26" font-weight="700">Nutrition • Recovery • Methylene Blue • Healthy Longevity</text>

  <text x="930" y="82" text-anchor="middle" fill="#C9A84A" font-family="Arial, Helvetica, sans-serif" font-size="22" font-weight="700">O2F.life</text>
</svg>
