<svg width="1200" height="675" viewBox="0 0 1200 675" xmlns="http://www.w3.org/2000/svg"><defs><linearGradient id="g" x1="0" y1="0" x2="1200" y2="675"><stop stop-color="#07111F"/><stop offset="1" stop-color="#18361F"/></linearGradient><radialGradient id="r" cx="55%" cy="40%" r="55%"><stop stop-color="#00D9A3" stop-opacity=".22"/><stop offset="1" stop-color="#00D9A3" stop-opacity="0"/></radialGradient></defs><rect width="1200" height="675" rx="38" fill="url(#g)"/><rect width="1200" height="675" rx="38" fill="url(#r)"/><g fill="none" stroke="#00D9A3" stroke-width="5" stroke-linecap="round"><path d="M610 460C610 315 570 230 470 160"/><path d="M610 385c-80-75-175-80-250-30 80 42 165 40 250 30Z"/><path d="M625 338c65-90 155-120 255-95-58 72-140 105-255 95Z"/><path d="M575 280c-45-70-110-100-195-95 42 62 105 92 195 95Z"/></g><circle cx="820" cy="195" r="18" fill="#C9A84A" opacity=".9"/><text x="90" y="555" fill="#F7F8FA" font-family="Arial" font-size="54" font-weight="800">Herbs & Wellness</text><text x="92" y="606" fill="#00D9A3" font-family="Arial" font-size="25" font-weight="700">Lifestyle Support • Balance • Safety</text><text x="1015" y="82" text-anchor="middle" fill="#C9A84A" font-family="Arial" font-size="22" font-weight="700">O2F.life</text></svg>