<svg width="1200" height="675" viewBox="0 0 1200 675" xmlns="http://www.w3.org/2000/svg"><defs><linearGradient id="g" x1="0" y1="0" x2="1200" y2="675"><stop stop-color="#070B1F"/><stop offset="1" stop-color="#102B44"/></linearGradient><radialGradient id="r" cx="70%" cy="35%" r="45%"><stop stop-color="#1E8CFF" stop-opacity=".35"/><stop offset="1" stop-color="#1E8CFF" stop-opacity="0"/></radialGradient></defs><rect width="1200" height="675" rx="38" fill="url(#g)"/><rect width="1200" height="675" rx="38" fill="url(#r)"/><path d="M735 150c-110 55-135 199-43 283 76 70 193 70 277 3-48 109-183 164-303 116-144-58-205-231-129-368 39-70 105-116 198-134Z" fill="#F7F8FA" opacity=".12"/><g stroke="#00D9A3" stroke-width="4" opacity=".75"><path d="M180 380h840"/><path d="M250 330c60-70 155-70 215 0s155 70 215 0 155-70 215 0" fill="none"/></g><text x="90" y="555" fill="#F7F8FA" font-family="Arial" font-size="54" font-weight="800">Sleep & Recovery</text><text x="92" y="606" fill="#00D9A3" font-family="Arial" font-size="25" font-weight="700">Rest • Hormones • Training Adaptation</text><text x="1015" y="82" text-anchor="middle" fill="#C9A84A" font-family="Arial" font-size="22" font-weight="700">O2F.life</text></svg>